<svg width="40" height="40" viewBox="0 0 40 40" fill="none" xmlns="http://www.w3.org/2000/svg">
<path d="M28.3333 0H11.1288C9.58747 0 8.33325 1.25422 8.33325 2.79556V37.2044C8.33325 38.7458 9.58747 40 11.1288 40H28.3333C29.8746 40 31.1288 38.7458 31.1288 37.2044V2.79556C31.1288 1.25422 29.8746 0 28.3333 0ZM29.8386 37.2044C29.8386 38.0342 29.163 38.7098 28.3333 38.7098H11.1288C10.299 38.7098 9.62347 38.0342 9.62347 37.2044V2.79556C9.62347 1.96578 10.299 1.29022 11.1288 1.29022H28.3333C29.163 1.29022 29.8386 1.96578 29.8386 2.79556V37.2044Z" fill="#333333"/>
<path d="M19.7311 30.1075C18.1898 30.1075 16.9355 31.3618 16.9355 32.9031C16.9355 34.4444 18.1898 35.6987 19.7311 35.6987C21.2724 35.6987 22.5267 34.4444 22.5267 32.9031C22.5267 31.3618 21.2724 30.1075 19.7311 30.1075ZM19.7311 34.4084C18.9013 34.4084 18.2258 33.7329 18.2258 32.9031C18.2258 32.0733 18.9013 31.3978 19.7311 31.3978C20.5609 31.3978 21.2364 32.0733 21.2364 32.9031C21.2364 33.7329 20.5609 34.4084 19.7311 34.4084Z" fill="#FBC100"/>
</svg>
